<svg width="32" height="32" viewBox="0 0 32 32" xmlns="http://www.w3.org/2000/svg">
  <defs>
    <linearGradient id="grad1" x1="0%" y1="0%" x2="100%" y2="100%">
      <stop offset="0%" style="stop-color:#8B5CF6;stop-opacity:1" />
      <stop offset="100%" style="stop-color:#EC4899;stop-opacity:1" />
    </linearGradient>
  </defs>
  
  <!-- Background circle -->
  <circle cx="16" cy="16" r="14" fill="url(#grad1)"/>
  
  <!-- Code brackets and slash icon -->
  <g fill="white">
    <!-- Left bracket -->
    <path d="M10 9c-.5 0-1 .5-1 1v2l-2 2 2 2v2c0 .5.5 1 1 1h1v-2h-.5l-1.5-1.5 1.5-1.5H11V9h-1z"/>
    
    <!-- Right bracket -->
    <path d="M22 9c.5 0 1 .5 1 1v2l2 2-2 2v2c0 .5-.5 1-1 1h-1v-2h.5l1.5-1.5-1.5-1.5H21V9h1z"/>
    
    <!-- Slash -->
    <path d="M18.5 8l-5 16h2l5-16h-2z"/>
  </g>
</svg>
